PathFileType	4	(X/Y/Z)	/Users/itak/Documents/Research/Walk-IL/dataset/trc/00352_00011.trc
DataRate	CameraRate	NumFrames	NumMarkers	Units	OrigDataRate	OrigDataStartFrame	OrigNumFrames
100.000000	100.000000	4	55	mm	100.000000	608	695
Frame#	Time	RPSI			LPSI			STRN			T10			C7			CLAV			RBAK			LBAK			LSHO			LUPA			LAEL			LAOL			LWTS			LWPS			LFRA			LIFD			LHPS			LHTS			RSHO			RUPA			RAEL			RAOL			RWTS			RWPS			RFRA			RIFD			RHTS			RHPS			RBHD			LFHD			RFHD			LBHD			LHIP			RASI			LASI			LKNE			LTHI			LANK			LTIP			LTOE			LMT1			LMT5			LHEE			RKNE			RTHI			RANK			RTIP			RTOE			RMT1			RMT5			RHEE			L3			RHIP			*53			*54			
		X1	Y1	Z1	X2	Y2	Z2	X3	Y3	Z3	X4	Y4	Z4	X5	Y5	Z5	X6	Y6	Z6	X7	Y7	Z7	X8	Y8	Z8	X9	Y9	Z9	X10	Y10	Z10	X11	Y11	Z11	X12	Y12	Z12	X13	Y13	Z13	X14	Y14	Z14	X15	Y15	Z15	X16	Y16	Z16	X17	Y17	Z17	X18	Y18	Z18	X19	Y19	Z19	X20	Y20	Z20	X21	Y21	Z21	X22	Y22	Z22	X23	Y23	Z23	X24	Y24	Z24	X25	Y25	Z25	X26	Y26	Z26	X27	Y27	Z27	X28	Y28	Z28	X29	Y29	Z29	X30	Y30	Z30	X31	Y31	Z31	X32	Y32	Z32	X33	Y33	Z33	X34	Y34	Z34	X35	Y35	Z35	X36	Y36	Z36	X37	Y37	Z37	X38	Y38	Z38	X39	Y39	Z39	X40	Y40	Z40	X41	Y41	Z41	X42	Y42	Z42	X43	Y43	Z43	X44	Y44	Z44	X45	Y45	Z45	X46	Y46	Z46	X47	Y47	Z47	X48	Y48	Z48	X49	Y49	Z49	X50	Y50	Z50	X51	Y51	Z51	X52	Y52	Z52	X53	Y53	Z53	X54	Y54	Z54	X55	Y55	Z55	

609	6.08	543.0391235351562	973.32373046875	741.8391723632812	542.5838623046875	975.1150512695312	870.49462890625	337.1108093261719	1220.687622070312	800.23583984375	570.4360961914062	1139.098754882812	800.39404296875	544.3475952148438	1390.648803710938	807.2015380859375	385.6423034667969	1344.454956054688	799.2967529296875	586.1160278320312	1246.897827148438	746.0256958007812	552.3518676757812	1355.7861328125	909.8110961914062	468.6917724609375	1381.36767578125	963.6865234375	479.1714477539062	1261.800048828125	1035.180541992188	448.6170654296875	1059.676513671875	1052.39013671875	510.2609558105469	1040.263305664062	998.0681762695312	327.584716796875	830.565185546875	1014.98193359375	368.3781433105469	814.56787109375	1069.7158203125	424.3529968261719	956.5830078125	1062.385986328125	298.8523864746094	675.3220825195312	1008.622741699219	360.6448669433594	743.6148681640625	1063.564819335938	304.4957885742188	756.0233154296875	1033.267700195312	493.0239868164062	1375.81103515625	643.5927734375	501.6317749023438	1307.641723632812	583.390625	456.8344421386719	1042.494873046875	548.3042602539062	503.4747619628906	1030.46826171875	629.0917358398438	316.4202880859375	840.2093505859375	626.3480224609375	333.1530151367188	818.4790649414062	554.8267211914062	419.4452514648438	979.1284790039062	545.2801513671875	273.6930236816406	674.0223999023438	635.009033203125	267.1632995605469	746.667236328125	623.2650146484375	302.8273620605469	738.932373046875	563.7098999023438	506.9466857910156	1596.597290039062	716.2713012695312	341.5733947753906	1621.514282226562	840.6854858398438	347.4427185058594	1618.7763671875	739.6676025390625	524.939697265625	1593.922241210938	860.1865844726562	459.5966186523438	920.759033203125	978.2149047851562	356.8136901855469	952.0263061523438	676.4844970703125	337.2276306152344	946.4514770507812	917.1070556640625	411.20556640625	477.4046020507812	1034.213134765625	404.6995239257812	611.86376953125	1021.391052246094	495.1609802246094	52.15719604492188	1095.037719726562	453.4901428222656	265.6108703613281	1079.645629882812	284.29541015625	38.47470474243164	1045.718505859375	353.880126953125	36.9697151184082	1000.956420898438	370.2236633300781	42.1444206237793	1114.258422851562	523.4730224609375	46.19369125366211	1025.387451171875	416.5597229003906	456.5925903320312	662.26123046875	386.4039001464844	716.9732055664062	632.0924072265625	487.2018737792969	50.18027877807617	703.8169555664062	410.9235534667969	337.3391418457031	684.9911499023438	300.0067443847656	50.52131652832031	769.5651245117188	360.55517578125	37.41632080078125	804.712890625	382.1518249511719	37.85987854003906	690.4986572265625	542.4083251953125	49.71857070922852	747.0452270507812	545.1642456054688	1022.598937988281	798.5269775390625	460.8713073730469	920.0970458984375	635.0396728515625	nan	nan	nan	nan	nan	nan	
610	6.09	542.911376953125	973.4815673828125	746.3291015625	542.3697509765625	974.635986328125	874.9898071289062	336.9710083007812	1220.206176757812	804.2190551757812	570.2129516601562	1138.959228515625	805.6597290039062	543.9381103515625	1390.461669921875	812.0321655273438	385.260498046875	1344.044799804688	803.2590942382812	586.1299438476562	1246.6435546875	751.2846069335938	551.5018920898438	1355.794677734375	914.9683837890625	467.3424072265625	1381.245849609375	968.0465087890625	476.79150390625	1261.544677734375	1039.538330078125	445.1836547851562	1059.453857421875	1055.93408203125	507.9737854003906	1039.992431640625	1002.901611328125	324.6788024902344	830.5701293945312	1015.428161621094	364.2727661132812	814.6047973632812	1071.339721679688	420.5541076660156	956.4421997070312	1065.182250976562	295.4315795898438	675.5889892578125	1008.031677246094	356.2208251953125	743.2044067382812	1064.348266601562	300.9804382324219	756.1427612304688	1032.857666015625	493.4740295410156	1375.352172851562	648.1810913085938	502.7646179199219	1307.29931640625	588.0678100585938	460.6849975585938	1042.053833007812	551.844482421875	505.6317443847656	1030.087524414062	633.7000122070312	320.7099304199219	837.6580810546875	625.2804565429688	339.7986450195312	816.5027465820312	554.169677734375	424.0385437011719	978.3475952148438	547.6688232421875	279.8955078125	670.9488525390625	631.7127685546875	272.3162841796875	743.4909057617188	620.0572509765625	310.2940979003906	736.5816650390625	561.7028198242188	507.3071594238281	1596.116088867188	720.5679931640625	341.1014404296875	1621.428344726562	843.7855224609375	347.6676025390625	1618.6279296875	742.840087890625	524.3011474609375	1593.511108398438	864.615478515625	459.401123046875	919.7506713867188	982.4274291992188	356.4710388183594	952.4749755859375	681.065673828125	337.1129455566406	945.8641357421875	921.7006225585938	414.1835327148438	476.379638671875	1036.594116210938	406.512939453125	610.7301635742188	1024.53271484375	495.6104431152344	50.56927108764648	1095.817016601562	455.5159301757812	264.3822021484375	1081.218017578125	284.6221618652344	38.59085464477539	1045.828002929688	354.2701721191406	37.08021926879883	1001.256469726562	370.5334167480469	41.64322662353516	1114.640869140625	523.93994140625	44.61091995239258	1026.085693359375	418.1588745117188	457.2840270996094	664.4447631835938	386.4765014648438	717.6470947265625	635.4058227539062	487.522705078125	50.01354217529297	703.7083740234375	412.4696655273438	337.92724609375	686.0457153320312	300.166259765625	50.90402603149414	768.6912231445312	360.5142517089844	37.53848266601562	803.8558959960938	382.5489807128906	37.72887802124023	689.8579711914062	542.5140991210938	49.43121719360352	747.07666015625	545.031494140625	1022.3095703125	803.2190551757812	460.4395751953125	920.7495727539062	639.4991455078125	nan	nan	nan	nan	nan	nan	
611	6.100000000000001	542.7950439453125	973.68115234375	750.7459106445312	542.2815551757812	974.1865844726562	879.4195556640625	336.8690795898438	1219.750854492188	808.3294677734375	570.0076904296875	1138.83447265625	810.8043212890625	543.5507202148438	1390.291259765625	816.7540893554688	384.9110717773438	1343.667236328125	807.2903442382812	586.1050415039062	1246.409301757812	756.3930053710938	550.7883911132812	1355.842041015625	919.9967041015625	466.1930236816406	1381.180541992188	972.3864135742188	474.6983337402344	1261.339599609375	1043.840942382812	441.9495849609375	1059.2978515625	1059.3935546875	505.8729858398438	1039.762084960938	1007.65966796875	321.9706420898438	830.6630249023438	1015.790466308594	360.3493041992188	814.681396484375	1072.790405273438	416.9559326171875	956.3887329101562	1067.882690429688	292.2616271972656	675.897216796875	1007.307006835938	352.027587890625	742.9490966796875	1065.113159179688	297.7152099609375	756.3045654296875	1032.315551757812	493.7972412109375	1374.9306640625	652.7294311523438	503.7052612304688	1307.025756835938	592.6777954101562	464.4122619628906	1041.689086914062	555.3798217773438	507.7117614746094	1029.80322265625	638.2193603515625	324.9755554199219	835.2346801757812	624.2858276367188	346.4243469238281	814.6640014648438	553.6561889648438	428.5124816894531	977.65771484375	550.1167602539062	286.2660522460938	668.013671875	628.6398315429688	277.7809753417969	740.4178466796875	617.1160278320312	317.8323669433594	734.3557739257812	559.9063720703125	507.6720581054688	1595.640502929688	724.8241577148438	340.6780090332031	1621.362182617188	846.9019165039062	347.9153442382812	1618.487548828125	746.0232543945312	523.7158203125	1593.135864257812	868.9976196289062	459.4501037597656	918.6942749023438	986.5991821289062	356.0816345214844	952.8779907226562	685.755615234375	337.1755676269531	945.3153076171875	926.4227905273438	417.1799011230469	475.3023681640625	1038.957275390625	408.6323852539062	609.6305541992188	1027.6103515625	496.0457763671875	49.06755447387695	1096.438598632812	457.5505676269531	263.1640930175781	1082.674560546875	284.9218139648438	38.71280288696289	1045.921142578125	354.5926513671875	37.18593597412109	1001.519836425781	370.8168029785156	41.24501800537109	1114.953735351562	524.357421875	43.08784103393555	1026.629638671875	419.4946594238281	457.933349609375	666.9131469726562	386.443359375	718.2719116210938	638.8821411132812	487.8338317871094	49.90047454833984	703.6636352539062	413.8301086425781	338.492431640625	687.2461547851562	300.33447265625	51.20884323120117	767.9215087890625	360.482177734375	37.70730209350586	803.1112060546875	382.9472045898438	37.63810348510742	689.287109375	542.6143188476562	49.2340202331543	747.1484985351562	544.9879760742188	1022.058166503906	807.8123168945312	460.06494140625	921.5514526367188	643.8170166015625	nan	nan	nan	nan	nan	nan	
612	6.11	542.7035522460938	973.9014892578125	755.1182861328125	542.3095092773438	973.779541015625	883.8004150390625	336.8019714355469	1219.31787109375	812.5542602539062	569.824951171875	1138.718994140625	815.8280639648438	543.1828002929688	1390.135498046875	821.3705444335938	384.5898742675781	1343.315063476562	811.3799438476562	586.0465087890625	1246.19384765625	761.3543701171875	550.1885375976562	1355.913696289062	924.8870239257812	465.2268371582031	1381.166748046875	976.7102661132812	472.9012451171875	1261.186401367188	1048.10693359375	438.9378967285156	1059.198120117188	1062.787231445312	503.9739685058594	1039.567993164062	1012.351379394531	319.4579772949219	830.8450927734375	1016.094665527344	356.5841674804688	814.7735595703125	1074.035888671875	413.5668640136719	956.4041137695312	1070.497802734375	289.2924499511719	676.2716674804688	1006.5302734375	348.0704345703125	742.8453369140625	1065.857788085938	294.6523742675781	756.531494140625	1031.723022460938	494.0037536621094	1374.537841796875	657.2322387695312	504.4668884277344	1306.804809570312	597.2186279296875	467.9907836914062	1041.390258789062	558.9066162109375	509.6951599121094	1029.591796875	642.640869140625	329.1950988769531	832.9295654296875	623.3856201171875	352.9837646484375	812.9591064453125	553.2967529296875	432.8340148925781	977.0577392578125	552.6206665039062	292.8387451171875	665.1843872070312	625.8372802734375	283.4960632324219	737.455078125	614.4473876953125	325.3929443359375	732.2533569335938	558.335205078125	508.041259765625	1595.165893554688	729.0367431640625	340.3009033203125	1621.322509765625	850.0291137695312	348.1873168945312	1618.354858398438	749.2090454101562	523.1773681640625	1592.794677734375	873.3268432617188	459.650146484375	917.5615844726562	990.6826782226562	355.6950988769531	953.2178955078125	690.5440063476562	337.3706665039062	944.801025390625	931.2479248046875	420.1793518066406	474.193359375	1041.311279296875	411.0032653808594	608.5629272460938	1030.618896484375	496.4784851074219	47.67200088500977	1096.88818359375	459.593994140625	261.961669921875	1084.000610351562	285.1978149414062	38.84568786621094	1046.013427734375	354.8436889648438	37.27968978881836	1001.741455078125	371.0789184570312	40.93917465209961	1115.20654296875	524.7349853515625	41.64548110961914	1027.0185546875	420.5300903320312	458.5200805664062	669.6061401367188	386.3235168457031	718.83837890625	642.51025390625	488.1279296875	49.83348083496094	703.6692504882812	414.9541625976562	339.024169921875	688.616943359375	300.5014038085938	51.42438125610352	767.2817993164062	360.46484375	37.88064193725586	802.502197265625	383.3238220214844	37.59514617919922	688.8076782226562	542.7109985351562	49.11446762084961	747.241943359375	545.0211181640625	1021.847961425781	812.330810546875	459.766845703125	922.4260864257812	648.0599975585938	nan	nan	nan	nan	nan	nan	
